<svg xmlns="http://www.w3.org/2000/svg" width="80" height="80" viewBox="0 0 80 80" fill="none">
  <!-- Background -->
  <circle cx="40" cy="40" r="36" fill="white" stroke="#1e3a8a" stroke-width="2"></circle>

  <!-- Connectors -->
  <g stroke="#1e3a8a" stroke-width="4" stroke-linecap="round">
    <line x1="40" y1="40" x2="40" y2="16"></line>
    <line x1="40" y1="40" x2="40" y2="64"></line>
    <line x1="40" y1="40" x2="16" y2="40"></line>
    <line x1="40" y1="40" x2="64" y2="40"></line>
    <line x1="40" y1="40" x2="22" y2="22"></line>
    <line x1="40" y1="40" x2="58" y2="22"></line>
    <line x1="40" y1="40" x2="22" y2="58"></line>
    <line x1="40" y1="40" x2="58" y2="58"></line>
  </g>

  <!-- Nodes -->
  <circle cx="40" cy="16" r="5" fill="#1e3a8a"></circle>
  <circle cx="40" cy="64" r="5" fill="#1e3a8a"></circle>
  <circle cx="16" cy="40" r="5" fill="#1e3a8a"></circle>
  <circle cx="64" cy="40" r="5" fill="#1e3a8a"></circle>
  <circle cx="22" cy="22" r="5" fill="#1e3a8a"></circle>
  <circle cx="58" cy="22" r="5" fill="#1e3a8a"></circle>
  <circle cx="22" cy="58" r="5" fill="#1e3a8a"></circle>
  <circle cx="58" cy="58" r="5" fill="#1e3a8a"></circle>

  <!-- Center core -->
  <circle cx="40" cy="40" r="12" fill="#facc15"></circle>
</svg>
