<svg xmlns="http://www.w3.org/2000/svg" width="80" height="80" viewBox="0 0 80 80" fill="none" role="img" aria-label="Sequatic icon — all nodes connected">
  <defs>
    <!-- Outer rim radial gradient -->
    <radialGradient id="rimGrad" cx="0.45" cy="0.45" r="0.9">
      <stop offset="0%" stop-color="#4ea0ff"></stop>
      <stop offset="55%" stop-color="#2f6fe0"></stop>
      <stop offset="100%" stop-color="#153a9a"></stop>
    </radialGradient>

    <!-- Gold glossy core -->
    <radialGradient id="goldCore" cx="0.5" cy="0.45" r="0.9">
      <stop offset="0%" stop-color="#fff7d1"></stop>
      <stop offset="45%" stop-color="#ffd55a"></stop>
      <stop offset="100%" stop-color="#f0b61a"></stop>
    </radialGradient>

    <!-- Connector gradient (light, readable over rim) -->
    <linearGradient id="connGrad" x1="0" y1="0" x2="1" y2="1">
      <stop offset="0%" stop-color="rgba(255,255,255,0.98)"></stop>
      <stop offset="100%" stop-color="rgba(255,255,255,0.65)"></stop>
    </linearGradient>

    <!-- Drop shadow for nodes -->
    <filter id="nodeShadow" x="-80%" y="-80%" width="260%" height="260%">
      <feGaussianBlur in="SourceAlpha" stdDeviation="2" result="blur"></feGaussianBlur>
      <feOffset in="blur" dx="0" dy="1.2" result="off"></feOffset>
      <feMerge>
        <feMergeNode in="off"></feMergeNode>
        <feMergeNode in="SourceGraphic"></feMergeNode>
      </feMerge>
    </filter>

    <!-- Center glow -->
    <filter id="centerGlow" x="-100%" y="-100%" width="300%" height="300%">
      <feGaussianBlur in="SourceGraphic" stdDeviation="3" result="g"></feGaussianBlur>
      <feMerge><feMergeNode in="g"></feMergeNode><feMergeNode in="SourceGraphic"></feMergeNode></feMerge>
    </filter>
  </defs>

  <!-- Outer rim -->
  <circle cx="40" cy="40" r="34" fill="url(#rimGrad)"></circle>
  <circle cx="40" cy="40" r="34" fill="none" stroke="rgba(255,255,255,0.08)" stroke-width="1"></circle>

  <!-- CONNECTORS: explicit lines to each node center (all 8 nodes) -->
  <g stroke-linecap="round" stroke="url(#connGrad)" stroke-width="5" opacity="0.95">
    <!-- top -->
    <line x1="40" y1="40" x2="40" y2="16"></line>
    <!-- top-right -->
    <line x1="40" y1="40" x2="58" y2="22"></line>
    <!-- right -->
    <line x1="40" y1="40" x2="64" y2="40"></line>
    <!-- bottom-right -->
    <line x1="40" y1="40" x2="58" y2="58"></line>
    <!-- bottom -->
    <line x1="40" y1="40" x2="40" y2="64"></line>
    <!-- bottom-left -->
    <line x1="40" y1="40" x2="22" y2="58"></line>
    <!-- left -->
    <line x1="40" y1="40" x2="16" y2="40"></line>
    <!-- top-left -->
    <line x1="40" y1="40" x2="22" y2="22"></line>
  </g>

  <!-- Connector rings (thin stroke at node centers to make join obvious) -->
  <g opacity="0.92" stroke="url(#connGrad)" stroke-width="1.6" fill="none">
    <circle cx="40" cy="16" r="6.4"></circle>
    <circle cx="58" cy="22" r="6.4"></circle>
    <circle cx="64" cy="40" r="6.4"></circle>
    <circle cx="58" cy="58" r="6.4"></circle>
    <circle cx="40" cy="64" r="6.4"></circle>
    <circle cx="22" cy="58" r="6.4"></circle>
    <circle cx="16" cy="40" r="6.4"></circle>
    <circle cx="22" cy="22" r="6.4"></circle>
  </g>

  <!-- Peripheral nodes (white, with subtle shadow) -->
  <g filter="url(#nodeShadow)">
    <circle cx="40" cy="16" r="5" fill="white"></circle>
    <circle cx="58" cy="22" r="5" fill="white"></circle>
    <circle cx="64" cy="40" r="5" fill="white"></circle>
    <circle cx="58" cy="58" r="5" fill="white"></circle>
    <circle cx="40" cy="64" r="5" fill="white"></circle>
    <circle cx="22" cy="58" r="5" fill="white"></circle>
    <circle cx="16" cy="40" r="5" fill="white"></circle>
    <circle cx="22" cy="22" r="5" fill="white"></circle>
  </g>

  <!-- Central glossy gold core -->
  <g filter="url(#centerGlow)">
    <circle cx="40" cy="40" r="13" fill="url(#goldCore)" stroke="#e0a800" stroke-width="1.4"></circle>
    <circle cx="40" cy="40" r="8" fill="#ffd95a" stroke="#dda10a" stroke-width="1.2"></circle>
  </g>

  <!-- Tiny focus dot -->
  <circle cx="40" cy="40" r="1" fill="rgba(0,0,0,0.12)"></circle>
</svg>
